# xmcd CD database file
#
# Track frame offsets:
#	150
#	24025
#	45350
#	62575
#	89362
#	128325
#	153960
#	171225
#	204462
#	225712
#	238650
#
# Disc length: 3398 seconds
#
# Revision: 3
# Processed by: cddbd v1.5.2PL0 Copyright (c) Steve Scherf et al.
# Submitted via: CDex 1.51
#
DISCID=790d440b
DTITLE=Screamin' Jay Hawkins - Live and Crazy
DYEAR=1992
DGENRE=Blues
TTITLE0=Lawdy Miss Clawdy
TTITLE1=The Whammy
TTITLE2=Hong Kong
TTITLE3=Yellow Coat
TTITLE4=Ain't That a Shame
TTITLE5=Alligator Wine
TTITLE6=I Put a Spell on You
TTITLE7=Little Bitty Pretty One
TTITLE8=Constipation Blues
TTITLE9=Goodnight Sweetheart
TTITLE10=Tutti-Frutti
EXTD=YEAR: 1992
EXTT0=
EXTT1=
EXTT2=
EXTT3=
EXTT4=
EXTT5=
EXTT6=
EXTT7=
EXTT8=
EXTT9=
EXTT10=
PLAYORDER=
